PathFileType	4	(X/Y/Z)	 s07c0403.trc
DataRate	CameraRate	NumFrames	NumMarkers	Units	OrigDataRate	OrigDataStartFrame	OrigNumFrames
200	200	4	48	mm	200	1751	2000
Frame#	Time	racr			lacr			c7			jug			rlel			rdr			llel			ldr			s2			lic			ric			lasi			rasi			rpsi			lpsi			rgt			lgt			rth1			rth2			rth3			rth4			rlfc			rmfc			rsh1			rsh2			rsh3			rsh4			rlmal			rcal			rtoe			rmt5			lth1			lth2			lth4			lth3			llfc			lmfc			lsh1			lsh2			lsh3			lsh4			llmal			lcal			ltoe			lmt5			SBIKE			LBIKE			RBIKE			
		X1	Y1	Z1	X2	Y2	Z2	X3	Y3	Z3	X4	Y4	Z4	X5	Y5	Z5	X6	Y6	Z6	X7	Y7	Z7	X8	Y8	Z8	X9	Y9	Z9	X10	Y10	Z10	X11	Y11	Z11	X12	Y12	Z12	X13	Y13	Z13	X14	Y14	Z14	X15	Y15	Z15	X16	Y16	Z16	X17	Y17	Z17	X18	Y18	Z18	X19	Y19	Z19	X20	Y20	Z20	X21	Y21	Z21	X22	Y22	Z22	X23	Y23	Z23	X24	Y24	Z24	X25	Y25	Z25	X26	Y26	Z26	X27	Y27	Z27	X28	Y28	Z28	X29	Y29	Z29	X30	Y30	Z30	X31	Y31	Z31	X32	Y32	Z32	X33	Y33	Z33	X34	Y34	Z34	X35	Y35	Z35	X36	Y36	Z36	X37	Y37	Z37	X38	Y38	Z38	X39	Y39	Z39	X40	Y40	Z40	X41	Y41	Z41	X42	Y42	Z42	X43	Y43	Z43	X44	Y44	Z44	X45	Y45	Z45	X46	Y46	Z46	X47	Y47	Z47	X48	Y48	Z48	
1751	8.7550	737.096001	1393.317135	-22.728559	776.611628	1395.776755	-362.901030	753.562844	1458.765290	-192.227601	718.381073	1315.090449	-200.497667	508.851672	1127.825182	63.753648	691.342853	937.806925	-42.599176	531.961151	1165.571158	-503.237878	694.812474	936.156324	-431.192579	170.925663	1260.418945	-239.842463	341.860508	1272.938047	-383.449775	336.943216	1283.600755	-90.528970	352.249952	1191.731588	-360.273152	352.287720	1233.157644	-108.298203	201.779707	1297.415127	-192.154523	219.072922	1298.422359	-301.412342	282.435169	1174.233478	-42.423335	240.315302	1132.274680	-397.996104	410.915229	1085.817371	-46.453552	489.742555	1046.383046	-60.312866	538.734256	977.384441	-60.015011	508.586832	1072.040309	-79.328910	618.554376	869.721132	-98.886295	603.597320	862.739484	-205.634440	512.901668	782.113813	-72.715003	449.537464	722.215329	-91.919920	367.952839	693.711108	-81.014059	457.479446	712.808174	-130.351509	245.031848	629.781978	-74.146313	166.552279	653.535355	-102.933609	344.858212	424.154784	-123.188784	270.718837	460.345456	-50.512655	237.528833	1016.106025	-413.288865	261.113296	931.584319	-420.522547	297.364536	931.217318	-414.397896	239.227545	845.108135	-417.577406	244.413332	675.750123	-388.188693	233.627575	656.902861	-294.524289	175.139571	549.685643	-410.666715	175.075136	471.480808	-393.534673	107.525948	394.793339	-397.942014	170.488255	466.119363	-351.909286	47.493709	272.499372	-392.968542	-28.652039	255.651030	-360.381443	243.642155	153.413930	-357.470171	158.690841	151.540729	-422.517562	-258.061038	966.819381	-232.914576	-75.676883	83.189542	-437.199611	-82.115410	79.598490	-39.735425	
1752	8.7600	736.420836	1392.064870	-20.635174	776.766108	1394.746675	-361.204821	754.192061	1457.167680	-190.240322	718.320598	1313.837562	-198.982950	507.358104	1126.624664	64.258542	691.216837	937.762328	-42.519692	532.447246	1165.725996	-503.571366	694.350088	935.771437	-430.914835	170.824728	1262.373288	-240.180331	342.470576	1273.796499	-383.182913	336.274689	1285.308020	-90.207368	352.301577	1192.763005	-359.762770	351.917287	1234.737850	-108.190107	201.719337	1299.377330	-192.379443	219.262513	1300.080583	-301.722076	282.050914	1176.212480	-42.373034	240.610098	1133.285010	-398.191149	410.450897	1087.523289	-47.180560	489.046118	1048.735620	-61.067134	538.049521	979.687053	-61.280158	508.070119	1074.315125	-80.298461	619.295051	872.458362	-101.009336	603.412882	865.807522	-207.491674	515.041617	783.433174	-74.349818	452.319726	722.452150	-93.332120	371.326871	692.829640	-81.847585	460.056426	713.680904	-131.986216	248.412618	626.806042	-74.605029	171.184157	646.404127	-103.390942	356.211667	425.421938	-123.231224	280.665524	458.733987	-50.497182	238.690704	1017.073041	-412.838890	262.526042	932.730985	-419.398474	298.684564	932.532160	-413.169588	241.005067	846.069552	-416.739364	246.110880	676.488592	-387.889846	234.781555	657.783160	-293.808708	174.460531	551.778257	-410.032995	172.658984	473.799105	-393.121386	103.181688	398.517512	-397.294138	167.717473	468.466919	-351.092940	40.153325	277.664020	-392.688550	-36.242051	262.077195	-360.082290	234.002023	154.936802	-357.443744	149.056450	154.882694	-422.380152	-258.055828	966.825519	-232.852949	-75.698327	83.213990	-437.207117	-82.161311	79.586676	-39.716709	
1753	8.7650	735.977634	1390.642951	-18.598920	777.008873	1393.637066	-359.552169	754.942194	1455.508596	-188.390032	718.364447	1312.726808	-197.461256	506.186947	1125.256589	64.650015	691.008127	937.692372	-42.484134	532.978725	1165.849564	-503.835209	693.791212	935.260335	-430.675152	170.724140	1264.767564	-240.144702	342.812564	1275.307749	-382.727389	335.716713	1287.178079	-89.789343	352.174716	1194.359642	-359.296109	351.658741	1236.492869	-108.044352	201.752523	1301.818841	-192.355478	219.439936	1302.250721	-301.710162	281.713754	1178.454067	-42.307821	240.702704	1134.779028	-398.335081	409.770395	1089.107844	-47.891245	488.022288	1050.478488	-61.864559	539.417592	981.473918	-63.406151	507.248314	1076.251897	-81.185591	619.467714	874.657233	-103.136694	602.515325	868.164521	-209.383197	516.199633	784.136301	-75.962140	454.361372	722.333195	-94.729293	373.850519	691.279450	-83.143492	461.198101	713.062635	-134.515933	251.336257	623.218056	-75.171188	171.022315	640.307501	-103.137371	367.117168	426.256067	-123.217482	290.524424	456.444568	-50.508218	239.919640	1018.313845	-412.328712	264.557483	934.191096	-418.199261	300.626569	934.261259	-411.819035	244.975769	847.028379	-414.065361	249.552947	677.293773	-387.612969	237.814639	658.810593	-293.445431	175.161238	554.118354	-409.439747	171.118510	476.543643	-392.689597	99.824749	402.856197	-396.686642	166.032209	470.994216	-350.322926	33.435754	283.795449	-392.438356	-43.237168	269.740429	-359.711321	224.530825	156.966646	-357.757631	139.652818	158.797825	-422.266858	-258.039839	966.855468	-232.780774	-75.679025	83.231068	-437.209103	-82.122726	79.581933	-39.740631	
1754	8.7700	735.725802	1389.181034	-16.746495	777.203954	1392.551129	-358.038652	755.846717	1453.770908	-186.702855	718.264969	1311.360327	-196.196078	504.796592	1124.133172	64.890535	690.745066	937.585035	-42.526373	533.550613	1165.824880	-504.020096	693.146470	934.529254	-430.327130	170.676464	1267.464263	-239.946373	343.032113	1277.259106	-382.022897	335.348501	1289.132188	-89.310947	351.922296	1196.385104	-358.735934	351.451687	1238.417115	-107.904510	201.971857	1304.353261	-192.256197	219.586095	1304.817345	-301.421121	281.296891	1180.744027	-42.224720	240.669496	1136.675944	-398.433016	408.835064	1090.504922	-48.437552	486.954206	1051.814981	-62.744137	538.228549	982.738408	-64.970649	506.330978	1077.712982	-82.017767	618.924308	875.874384	-105.373888	600.909666	869.629865	-211.202738	516.272822	784.308378	-77.649128	455.348265	721.474797	-96.053763	375.317389	689.180935	-84.203927	462.333105	712.287639	-135.750074	253.801732	618.724158	-75.626453	172.651697	632.233774	-103.242517	377.620023	426.325396	-123.410932	300.007720	453.546292	-50.432230	241.409264	1019.700456	-411.877298	267.180175	935.945651	-417.034678	303.159057	936.578957	-410.382943	248.205583	848.210619	-413.092711	254.620640	678.202720	-387.433253	242.566831	660.207080	-293.351208	177.191751	556.755516	-408.903874	170.452752	479.698566	-392.250275	97.648535	407.755285	-396.264462	165.571062	474.219271	-349.794696	27.462065	290.871677	-392.235038	-49.250105	278.518069	-359.452341	215.496375	159.218421	-357.721212	130.647764	163.451850	-422.126958	-258.033847	966.879369	-232.647931	-75.691140	83.239778	-437.184813	-82.144613	79.565155	-39.745261	
